<?xml version="1.0" encoding="UTF-8"?> <svg xmlns="http://www.w3.org/2000/svg" xmlns:xlink="http://www.w3.org/1999/xlink" height="500" viewBox="0 0 673 500" width="673"><linearGradient id="a" x1="14.487307%" x2="94.657824%" y1="-12.290749%" y2="108.624813%"><stop offset="0" stop-color="#eef9ff"></stop><stop offset="1" stop-color="#e1e1ff"></stop></linearGradient><linearGradient id="b" x1="55.426441%" x2="39.246824%" y1="76.746819%" y2="43.95355%"><stop offset="0" stop-color="#7eadf1"></stop><stop offset="1" stop-color="#5f93f6"></stop></linearGradient><linearGradient id="c"><stop offset="0" stop-color="#59a37e"></stop><stop offset="1" stop-color="#8cc9a8"></stop></linearGradient><linearGradient id="d" x1="122.673147%" x2="17.753731%" xlink:href="#c" y1="93.974192%" y2="31.168705%"></linearGradient><linearGradient id="e"><stop offset="0" stop-color="#fff"></stop><stop offset="1" stop-color="#d1dbff"></stop></linearGradient><linearGradient id="f" x1="69.452552%" x2="218.740844%" xlink:href="#e" y1="62.271538%" y2="62.271538%"></linearGradient><linearGradient id="g" x1="76.40454%" x2="142.144404%" xlink:href="#e" y1="-53.12955%" y2="217.82648%"></linearGradient><linearGradient id="h" x1="103.190395%" x2="-25.6792%" xlink:href="#e" y1="-87.028157%" y2="105.642466%"></linearGradient><linearGradient id="i" x1="122.673147%" x2="17.753731%" xlink:href="#c" y1="53.562506%" y2="48.47441%"></linearGradient><linearGradient id="j" x1="191.301478%" x2="-140.55056%" xlink:href="#e" y1="34.376131%" y2="34.376131%"></linearGradient><linearGradient id="k" x1="78.492862%" x2="37.357249%" xlink:href="#c" y1="143.886741%" y2="9.794397%"></linearGradient><linearGradient id="l"><stop offset="0" stop-color="#3456ff"></stop><stop offset="1" stop-color="#425ed8"></stop></linearGradient><linearGradient id="m" x1="49.978713%" x2="48.66251%" xlink:href="#l" y1="106.715553%" y2="37.518167%"></linearGradient><linearGradient id="n"><stop offset="0" stop-color="#d7ddf9"></stop><stop offset="1" stop-color="#f3f3f8"></stop></linearGradient><linearGradient id="o" x1="33.421826%" x2="64.887979%" xlink:href="#n" y1="78.282842%" y2="125.787794%"></linearGradient><linearGradient id="p" x1="81.390377%" x2="41.267237%" xlink:href="#n" y1="85.778278%" y2="29.97005%"></linearGradient><linearGradient id="q" x1="122.673147%" x2="17.753731%" y1="111.216897%" y2="23.784773%"><stop offset="0" stop-color="#88ddb3"></stop><stop offset="1" stop-color="#8cc9a8"></stop></linearGradient><linearGradient id="r" x1="93.892792%" x2="13.9734%" y1="73.281831%" y2="73.281831%"><stop offset="0" stop-color="#852e09"></stop><stop offset="1" stop-color="#cc4d18"></stop></linearGradient><linearGradient id="s"><stop offset="0" stop-color="#ff8e44"></stop><stop offset="1" stop-color="#fff1d5"></stop></linearGradient><linearGradient id="t" x1="158.455985%" x2="-73.024317%" xlink:href="#s" y1="49.082621%" y2="46.484609%"></linearGradient><linearGradient id="u" x1="158.455985%" x2="-73.024317%" xlink:href="#s" y1="48.895695%" y2="45.768311%"></linearGradient><linearGradient id="v" x1="90.74153%" x2="3.785871%" xlink:href="#s" y1="44.632676%" y2="29.432457%"></linearGradient><linearGradient id="w" x1="49.968458%" x2="48.018145%" xlink:href="#l" y1="106.715553%" y2="37.518167%"></linearGradient><linearGradient id="x" x1="95.997021%" x2="-2.175563%" xlink:href="#s" y1="44.632676%" y2="29.432457%"></linearGradient><linearGradient id="y" x1="93.892792%" x2="13.9734%" y1="73.281831%" y2="73.281831%"><stop offset="0" stop-color="#4e1b06"></stop><stop offset="1" stop-color="#87320e"></stop></linearGradient><linearGradient id="z" x1="50%" x2="50%" y1="0%" y2="100%"><stop offset="0" stop-color="#3c4358"></stop><stop offset="1" stop-color="#252f3b"></stop></linearGradient><linearGradient id="A" x1="49.782146%" x2="36.311695%" xlink:href="#l" y1="106.715553%" y2="37.518167%"></linearGradient><linearGradient id="B" x1="76.749493%" x2="8.292729%" y1="50%" y2="29.432457%"><stop offset="0" stop-color="#fe8738"></stop><stop offset="1" stop-color="#fff1d5"></stop></linearGradient><linearGradient id="C" x1="49.615618%" x2="25.848308%" xlink:href="#l" y1="106.715553%" y2="37.518167%"></linearGradient><linearGradient id="D" x1="71.26876%" x2="40.562702%" xlink:href="#c" y1="143.886741%" y2="9.794397%"></linearGradient><linearGradient id="E" x1="50%" x2="52.43233%" y1="93.677298%" y2="14.994885%"><stop offset="0" stop-color="#9bc989"></stop><stop offset="1" stop-color="#d1f4c5"></stop></linearGradient><linearGradient id="F" x1="62.915916%" x2="44.268996%" xlink:href="#c" y1="143.886741%" y2="9.794397%"></linearGradient><linearGradient id="G" x1="50%" x2="48.064878%" y1="0%" y2="57.58854%"><stop offset="0" stop-color="#3c4358"></stop><stop offset="1" stop-color="#1b242e"></stop></linearGradient><linearGradient id="H" x1="335.723884%" x2="-27.610967%" xlink:href="#e" y1="50%" y2="50%"></linearGradient><linearGradient id="I" x1="87.332846%" x2="2.897691%" xlink:href="#e" y1="66.750712%" y2="71.023409%"></linearGradient><linearGradient id="J" x1="202.0718%" x2="-46.444048%" xlink:href="#e" y1="50%" y2="50%"></linearGradient><linearGradient id="K" x1="291.831128%" x2="-37.304639%" xlink:href="#e" y1="50%" y2="50%"></linearGradient><linearGradient id="L"><stop offset="0" stop-color="#d0deff"></stop><stop offset="1" stop-color="#91e0ff" stop-opacity=".323017"></stop></linearGradient><linearGradient id="M" x1="-52.82144%" x2="83.209598%" xlink:href="#L" y1="113.941435%" y2="0%"></linearGradient><linearGradient id="N" x1="-129.65564%" x2="108.025754%" xlink:href="#L" y1="82.473362%" y2="24.606949%"></linearGradient><linearGradient id="O" x1="40.91448%" x2="35.853614%" y1="50.024152%" y2="51.603874%"><stop offset="0" stop-color="#dbfeff"></stop><stop offset="1" stop-color="#d6fffc" stop-opacity=".323017"></stop></linearGradient><g fill="none" fill-rule="evenodd"><path d="m468.676303 142.210871c-37.413965-91.0355179-325.335854-134.37435212-360.500235-79.8416374-26.9627781 41.8137174 40.888216 117.6755514 77.726173 163.3744084 35.959727 44.60938-40.107057 87.388097-14.615514 157.454216 38.446719 105.674751 333.983687 80.035932 348.958003 11.280074s-70.503197-112.271465-80.451254-135.084736c-22.836041-52.368496 52.908433-58.723311 28.882827-117.182325z" fill="#f1f4ff"></path><g transform="translate(231.259899 112)"><g fill-rule="nonzero"><path d="m84.1235555 4.22101805h195.7977485c4.427877 0 8.01738 3.58950329 8.01738 8.01737995 0 .5693753-.060653 1.1371306-.180932 1.6936564l-65.010623 300.8002916c-1.395636 6.457525-7.107163 11.066516-13.713783 11.066516h-192.9384106c-4.9813613 0-9.01955255-4.038191-9.01955255-9.019553 0-.640547.06823465-1.279272.20354902-1.905363l65.08995233-301.1673426c1.1962595-5.53502138 6.0918541-9.48558535 11.7546713-9.48558535z" fill="#40489b"></path><path d="m79.2057769 0h195.7977491c4.427877 0 8.01738 3.58950329 8.01738 8.01738 0 .56937521-.060653 1.13713058-.180933 1.6936564l-65.010623 300.8002916c-1.395636 6.457525-7.107163 11.066516-13.713783 11.066516h-192.9384102c-4.98136133 0-9.01955254-4.038191-9.01955254-9.019553 0-.640547.06823465-1.279272.20354902-1.905363l65.08995232-301.1673426c1.1962595-5.53502142 6.0918541-9.4855854 11.7546713-9.4855854z" fill="#6670d5"></path><path d="m84.2610981 8.59657476h182.0371189c2.767423 0 5.010863 2.24343954 5.010863 5.01086254 0 .3569325-.038138.7128434-.113762 1.0616725l-63.057227 290.8595362c-.999328 4.609526-5.077594 7.89838-9.794202 7.89838h-182.0371185c-2.7674229 0-5.0108625-2.243439-5.0108625-5.010862 0-.356933.0381371-.712844.1137619-1.061673l63.057227-290.8595363c.9993275-4.6095262 5.0775936-7.89837994 9.7942012-7.89837994z" fill="url(#a)"></path></g><path d="m181.934812 40.6879177-19.973438 34.1954901-16.625789-28.620703h10.275326 6.407246l3.290866-5.5747871h-6.408201-16.683845-.11452c-1.327798.0579552-2.540122.7474009-3.17555 1.8968464-.634792 1.1491288-.634792 2.5289702.058215 3.6779407l18.530642 31.7819553c2.020804 3.4477032 7.043469 3.4477032 9.06332 0l21.878767-37.4142226z" fill="#4ea9f4"></path><path d="m158.947524 50.8655732h-6.489673l9.155889 15.7648643 1.042761-1.8233615 11.415125-19.9410914c1.101197-1.8828435-.290108-4.2355471-2.433588-4.2355471-.984803 0-1.912606.52918-2.433906 1.4123353l-7.649627 13.3533269z" fill="#4ea9f4"></path><path d="m247.48333 124.060728-39.345239 181.467918c-.999328 4.609526-5.077594 7.89838-9.794202 7.89838h-182.0371185c-2.7674229 0-5.0108625-2.243439-5.0108625-5.010862 0-.356933.0381371-.712844.1137619-1.061673l14.8382406-68.430349c93.4331055-28.478422 167.1782455-66.766227 221.2354195-114.863414z" fill="url(#b)" fill-rule="nonzero" opacity=".2"></path><path d="m89.4533624 121h125.1519526c3.54459 0 5.759655 2.984768 4.947485 6.666667l-3.676411 16.666666c-.81217 3.681899-4.344022 6.666667-7.888613 6.666667h-125.151952c-3.5445905 0-5.7596549-2.984768-4.9474848-6.666667l3.6764103-16.666666c.8121701-3.681899 4.3440224-6.666667 7.8886129-6.666667z" fill="#fff"></path><g transform="translate(80.740101 124)"><path d="m8.7347346 0h23.8233748c1.1045695 0 2 .8954305 2 2 0 .19491779-.0284939.3887887-.084578.57546362l-6.045548 20.12251638c-.2540441.8455821-1.0325021 1.4245363-1.915422 1.4245363h-23.82337484c-1.1045695 0-2-.8954305-2-2 0-.1949177.0284939-.3887887.08457795-.5754636l6.04554804-20.12251632c.25404414-.84558212 1.03250214-1.42453638 1.91542205-1.42453638z" fill="url(#d)"></path><path d="m10.1267791 10.802851 2.49544 4.5768105c.9253332 1.6971254 3.0512559 2.3227866 4.7483812 1.3974534.1954762-.1065805.3803368-.23157.5520684-.3732691l10.5582587-8.71182486-1.9093134-2.31398412-10.5582587 8.71182488c-.0245331.0202427-.0509417.0380983-.0788669.0533241-.2424465.1321905-.5461497.0428103-.6783402-.1996362l-2.49544-4.57681051z" fill="#fff"></path></g><path d="m79.4533624 162h125.1519526c3.54459 0 5.759655 2.984768 4.947485 6.666667l-3.676411 16.666666c-.81217 3.681899-4.344022 6.666667-7.888613 6.666667h-125.151952c-3.5445905 0-5.7596549-2.984768-4.9474848-6.666667l3.6764103-16.666666c.8121701-3.681899 4.3440224-6.666667 7.8886129-6.666667z" fill="#fff"></path><g transform="translate(70.740101 165)"><path d="m8.7347346 0h23.8233748c1.1045695 0 2 .8954305 2 2 0 .19491779-.0284939.3887887-.084578.57546362l-6.045548 20.12251638c-.2540441.8455821-1.0325021 1.4245363-1.915422 1.4245363h-23.82337484c-1.1045695 0-2-.8954305-2-2 0-.1949177.0284939-.3887887.08457795-.5754636l6.04554804-20.12251632c.25404414-.84558212 1.03250214-1.42453638 1.91542205-1.42453638z" fill="url(#d)"></path><path d="m10.1267791 10.802851 2.49544 4.5768105c.9253332 1.6971254 3.0512559 2.3227866 4.7483812 1.3974534.1954762-.1065805.3803368-.23157.5520684-.3732691l10.5582587-8.71182486-1.9093134-2.31398412-10.5582587 8.71182488c-.0245331.0202427-.0509417.0380983-.0788669.0533241-.2424465.1321905-.5461497.0428103-.6783402-.1996362l-2.49544-4.57681051z" fill="#fff"></path></g><path d="m69.4533624 203h125.1519526c3.54459 0 5.759655 2.984768 4.947485 6.666667l-3.676411 16.666666c-.81217 3.681899-4.344022 6.666667-7.888613 6.666667h-125.151952c-3.5445905 0-5.7596549-2.984768-4.9474848-6.666667l3.6764103-16.666666c.8121701-3.681899 4.3440224-6.666667 7.8886129-6.666667z" fill="#fff"></path><g transform="translate(60.740101 205)"><path d="m8.7347346 0h23.8233748c1.1045695 0 2 .8954305 2 2 0 .19491779-.0284939.3887887-.084578.57546362l-6.045548 20.12251638c-.2540441.8455821-1.0325021 1.4245363-1.915422 1.4245363h-23.82337484c-1.1045695 0-2-.8954305-2-2 0-.1949177.0284939-.3887887.08457795-.5754636l6.04554804-20.12251632c.25404414-.84558212 1.03250214-1.42453638 1.91542205-1.42453638z" fill="url(#d)"></path><path d="m10.1267791 10.802851 2.49544 4.5768105c.9253332 1.6971254 3.0512559 2.3227866 4.7483812 1.3974534.1954762-.1065805.3803368-.23157.5520684-.3732691l10.5582587-8.71182486-1.9093134-2.31398412-10.5582587 8.71182488c-.0245331.0202427-.0509417.0380983-.0788669.0533241-.2424465.1321905-.5461497.0428103-.6783402-.1996362l-2.49544-4.57681051z" fill="#fff"></path></g></g><g transform="matrix(-1 0 0 1 219 210.640573)"><path d="m7.12258065 0h176.28387135v226.540509l-137.1096778.459491-39.17419355-2.389474z" fill="url(#f)"></path><path d="m0 0h113.96129v96.7736842h-113.96129z" fill="url(#g)" transform="translate(58.76129 12.544737)"></path><g transform="translate(57.574194 11.35)"><path d="m.59354839.59736842h62.91612901v96.77368418h-62.91612901z" fill="url(#h)"></path><path d="m1.18709677 108.721053h113.96129023v96.773684h-113.96129023z" fill="url(#g)"></path><path d="m.59354839 108.123684h62.91612901v96.773684h-62.91612901z" fill="url(#h)"></path><g transform="translate(2.374194 172.042105)"><path d="m11.8709677 17.9210526h16.6193549v14.3368421h-16.6193549c-1.5827957-2.3894736-2.37419351-4.7789473-2.37419351-7.168421s.79139781-4.7789474 2.37419351-7.1684211z" fill="#fffefc" fill-rule="nonzero" transform="matrix(-1 0 0 1 37.987096 0)"></path><path d="m8.309677 16.726316h87.845161v1.194737h-87.845161z" fill="#b6ceff" transform="matrix(1 0 0 -1 0 34.647368)"></path><path d="m8.309677 32.257895h87.845161v1.194737h-87.845161z" fill="#b6ceff" transform="matrix(1 0 0 -1 0 65.710526)"></path><path d="m26.116129 17.9210526h71.2258065c1.5827957 2.3894737 2.3741935 4.7789474 2.3741935 7.1684211s-.7913978 4.7789474-2.3741935 7.168421h-71.2258065c1.5827957-2.3894736 2.3741936-4.7789473 2.3741936-7.168421s-.7913979-4.7789474-2.3741936-7.1684211z" fill="url(#i)"></path><path d="m3.56129032 1.19473684h16.61935488v14.33684206h-16.61935488c-1.5827957-2.3894736-2.37419355-4.7789473-2.37419355-7.16842101 0-2.38947368.79139785-4.77894736 2.37419355-7.16842105z" fill="#fffefc" fill-rule="nonzero" transform="matrix(-1 0 0 1 21.367742 0)"></path><path d="m0 0h87.845161v1.194737h-87.845161z" fill="#b6ceff" transform="matrix(1 0 0 -1 0 1.194736)"></path><path d="m0 15.531579h87.845161v1.194737h-87.845161z" fill="#b6ceff" transform="matrix(1 0 0 -1 0 32.257894)"></path><path d="m17.8064516 1.19473684h71.2258065c1.5827957 2.38947369 2.3741935 4.77894737 2.3741935 7.16842105 0 2.38947371-.7913978 4.77894741-2.3741935 7.16842101h-71.2258065c1.5827957-2.3894736 2.3741936-4.7789473 2.3741936-7.16842101 0-2.38947368-.7913979-4.77894736-2.3741936-7.16842105z" fill="url(#i)"></path></g></g><path d="m0 0h46.2967742v227l-46.2967742-2.389474z" fill="url(#j)"></path></g><g transform="translate(56 250.640573)"><path d="m0 0h43.8307692v70h-43.8307692z" fill="url(#k)"></path><g fill-rule="nonzero"><path d="m0 0h13.0307692v70h-13.0307692z" fill="url(#m)"></path><path d="m21.3230769 3.55932203h31.9846154l23.6923077 58.13559327h-31.9846154z" fill="#fff7e6"></path><path d="m21.3230769 3.55932203c-2.6077568.9923303-4.6956766 2.23818328-6.2637593 3.73755894s-2.4188924 3.25227403-2.5524292 5.25869503l23.9534381 57.444424c.3289088-2.254913 1.2504571-4.0052159 2.7646448-5.2509087 1.5141876-1.2456927 3.4443254-2.2637514 5.7904133-3.054176z" fill="#fff0d0"></path><path d="m45.0153846 61.6949153h31.2618738c-2.6840432 1.8153569-4.5701771 3.1995377-5.6584018 4.1525423-1.0882247.9530047-2.36325 2.3371855-3.8250759 4.1525424h-30.3208208c.3100699-2.2463434 1.227407-3.9966463 2.7520114-5.2509087 1.5246043-1.2542623 3.4547421-2.272321 5.7904133-3.054176z" fill="#fffefc"></path></g></g><g transform="translate(90 153.640573)"><path d="m39.3714548 28.5h9.44l10.1885452 28.5h-9.44z" fill="url(#o)" fill-rule="nonzero"></path><path d="m14.9741858 0h42.7975933c.5522848 0 1 .44771525 1 1 0 .0681038-.0069571.13602946-.0207631.20271922l-11.3859649 54.99999998c-.0961192.4643045-.5050876.7972808-.9792369.7972808h-42.79759332c-.55228475 0-1-.4477153-1-1 0-.0681038.00695715-.1360295.0207631-.2027192l11.38596492-55.00000002c.0961192-.4643045.5050876-.79728078.9792369-.79728078z" fill="url(#p)" fill-rule="nonzero"></path><path d="m12.6141858 0h42.7975933c.5522848 0 1 .44771525 1 1 0 .0681038-.0069571.13602946-.0207631.20271922l-11.3859649 54.99999998c-.0961192.4643045-.5050876.7972808-.9792369.7972808h-42.79759332c-.55228474 0-.99999999-.4477153-.99999999-1 0-.0681038.00695714-.1360295.02076309-.2027192l11.38596492-55.00000002c.0961192-.4643045.5050876-.79728078.9792369-.79728078z" fill="url(#j)"></path><path d="m14.8436006 2.375h37.1510006c.4970563 0 .9.40294373.9.9 0 .06129342-.0062614.12242652-.0186868.1824473l-10.1982017 49.2625c-.0865073.417874-.4545789.7175527-.8813133.7175527h-37.1510006c-.49705628 0-.9-.4029437-.9-.9 0-.0612934.00626143-.1224265.01868678-.1824473l10.19820172-49.2625c.0865073-.41787405.4545789-.7175527.8813133-.7175527z" fill="#c6d9ff"></path><path d="m45.725 16.9612527 3.2320521 5.422-6.2793394 30.3366946c-.0865073.417874-.4545789.7175527-.8813133.7175527h-37.1510006c-.49705628 0-.9-.4029437-.9-.9 0-.0612934.00626143-.1224265.01868678-.1824473l3.2959665-15.9198 16.99831002-14.7590993 6.6216379 10.1797633z" fill="url(#q)"></path><ellipse cx="34.81" cy="13.65625" fill="#fff0d0" fill-rule="nonzero" rx="4.13" ry="4.15625"></ellipse></g><g transform="translate(164.101645 119.133843)"><g fill-rule="nonzero"><g transform="translate(68.411805 291.29883)"><path d="m0 1.18360476c.70458555 9.48870934.93944739 16.25101064.70458555 20.28690374-.23486185 4.0358932.09736158 6.7380229.99667029 8.1063893h35.07702826c2.6286304-2.0449414 3.285788-4.7470711 1.9714728-8.1063893-1.9714728-5.0389772-10.2230828-7.08868-14.8939893-10.2930406-3.1139376-2.13624033-5.4914577-4.94318518-7.1325602-8.42083453l-8.42299951-2.75663337z" fill="url(#r)"></path><path d="m8.30020789 0 8.42299951 2.75663337c.922836 1.95557567 2.0785358 3.69906686 3.4670992 5.23047358-3.3974986.64705415-15.54128282.21488265-19.72257834.26188132-.12261802-2.15724548-.27817471-4.51265083-.46772826-7.06538351z" fill="url(#t)"></path></g><g transform="translate(2.639239 292.061328)"><path d="m15.2666153 0c-2.8306481 6.10822339-6.26345486 11.4051276-10.29842023 15.8907126-6.05244806 6.7283775-5.55413954 9.7782439-3.81187835 12.8196233h28.17322428c.7804005-2.3513049 1.1706007-5.7604546 1.1706007-10.227449 0-4.4669945-.3902002-10.62795675-1.1706007-18.4828869z" fill="url(#r)"></path><path d="m29.329541 0c.2672013 2.68944924.488659 5.18031312.6643733 7.47259165-2.3592191 1.50890565-15.8554984 1.45702563-19.6577056 1.43861821 1.8075896-2.7488947 3.4512145-5.71927794 4.9304066-8.91120986z" fill="url(#u)"></path></g><path d="m2.24803176 159.397829c-1.49868784 7.294827-2.24803176 12.163221-2.24803176 14.605181 0 3.66294 2.60600525 9.42013 4.41554916 12.088257s7.11068184 4.542003 8.42422914 4.020961c1.3135473-.521043-.6714161-6.667537 0-10.684675.671416-4.017137.4011236-7.411365 1.4170503-5.986602s-.2571175 7.811468 1.3435798 8.782644 1.8792745-2.094251 2.4871736-5.555586c.607899-3.461336 1.1433058-5.39187.4970895-8.475719-.4308109-2.055899-1.1491743-4.719623-2.1550902-7.991173z" fill="url(#v)"></path><path d="m2.24803176 159.397829 14.18154954.803288c1.0059159 3.27155 1.7242793 5.935274 2.1550902 7.991173.289971 1.383789.3420213 2.535357.2563612 3.697214-3.9775739-3.244569-9.84672011-5.678743-17.60716636-7.302799.28660407-1.565218.62513908-3.2953 1.01416542-5.188876z" fill="#e09d70"></path><path d="m17.1603494 60.2717674c2.7899308 4.6648865 4.7039691 11.2374356 5.7421148 19.7176472 1.0381456 8.4802117.0571933 36.1863384-2.9428571 83.1183794h-19.9596071c2.28946651-26.03086 4.03213007-45.766426 5.2279907-59.206698 1.79379094-20.160408 3.92534052-27.3374596 5.174374-34.6600321.832689-4.8817151 3.0853505-7.8714806 6.7579847-8.9692965z" fill="url(#w)"></path><path d="m18.8784 73.8946223 3.2611367 1.042846c.2923286 1.6011771.5466378 3.2851592.7629275 5.0519463 1.0381456 8.4802117.0571933 36.1863384-2.9428571 83.1183794h-19.9596071c.25750627-2.927804.50809522-5.77597.75176685-8.544497 12.52465195-6.129042 16.33712835-24.604692 14.99816545-37.391888-1.0428225-9.959034 0-24.3846294 3.1284677-43.2767867z" fill="#121527" fill-opacity=".268056"></path><path d="m18.8784 153.453339c-1.1978573 19.461064-1.1978573 34.47072 0 45.028969 1.7967859 15.837373-4.5160144 28.710381-2.8434966 59.606018 1.1150118 20.597091 1.1150118 32.586137 0 35.967137h17.1310275c4.6038269-32.294839 7.5022242-52.353428 8.6951917-60.175767 1.7894513-11.73351-.3787211-16.665437 1.5696758-27.951063 1.2989313-7.52375 6.6613828-28.125702 16.0873546-61.805856l-3.2258037-8.609781z" fill="#bec6e9"></path><path d="m47.0934707 163.107794 5.8986572 4.625338c-5.4128832 19.895354-8.599993 32.627188-9.5613295 38.195501-1.9483969 11.285626.2197755 16.217553-1.5696758 27.951063-1.1929675 7.822339-4.0913648 27.880928-8.6951917 60.175767h-5.8017821c6.8147779-36.490106 9.6071833-61.956412 8.3772162-76.399449-1.2617851-14.816663 2.5222502-32.999403 11.3521057-54.54822z" fill="#121527" fill-opacity=".268056"></path><path d="m41.8099864 152.630353c9.856977 36.307824 14.7854656 58.048624 14.7854656 65.2224 0 10.760665.8551452 21.453625 2.922701 31.842442 1.3783705 6.925878 4.0535203 21.712634 8.0254494 44.360268h17.5914102c-1.9963804-40.584505-2.9945707-63.942503-2.9945707-70.073995s-2.4755117-29.386721-7.4265353-69.765685l-22.5452113-18.702787z" fill="#bec6e9"></path><path d="m74.7522218 152.4149.9926309.043872c-.9501528 21.497977-.9501528 39.74854-.0005079 54.750039.1453171 2.295568.2150984 4.615908.2164314 7.029565.0031235 5.655616-.0877265 7.196586-1.1411471 22.086361-1.4551624 20.568273-1.6612167 36.013397.0306227 57.729261l-.9965802.000327c-1.689632-21.73007-1.4818458-37.209975-.0251651-57.799708 1.0511824-14.858141 1.1417743-16.39473 1.1386699-22.015693-.0013219-2.393465-.0704812-4.693123-.2144467-6.96734-.9521221-15.040631-.9521221-33.325643-.0005079-54.856684z" fill="#fff" transform="matrix(.9945219 -.10452846 .10452846 .9945219 -22.92729 8.990469)"></path><path d="m55.6127011 46.1290087c2.391879 1.1397934 4.4309334.6342144 6.1171632-1.516737.8705534-1.110476 1.9950561-2.8066734 2.9157207-4.2675094.5127633-.8136115.918031-4.2148273 1.3720699-4.3282709 2.160714-.5398636 1.3556253-1.6328928.7562693-3.0419114-1.2913615-3.0358464 1.4044447-8.2953968 1.4044447-9.7721989 0-1.476802-1.4866869-7.2072685-4.4027285-10.9425694-2.9160415-3.73530095-15.2919195-6.15116723-22.4094332-4.02987057-7.1175137 2.12129667-8.7805471 9.85206877-6.8486448 16.02893667 1.9319022 6.1768679 5.195101 15.8897575 5.195101 19.7420955 0 2.2450333-1.3690117 13.0138326 0 15.8303907.9801274 2.0164809 3.856932-3.5787198 7.3709622-3.0009941 8.4223187 1.3846749 8.5290755-1.3275559 8.5290755-2.7525612 0-.9500035 0-3.5996035 0-7.9488z" fill="url(#x)"></path><ellipse cx="65.0808" cy="29.808" fill="#1a1d37" rx="1" ry="1" transform="matrix(.9781476 .20791169 -.20791169 .9781476 7.619603 -12.879683)"></ellipse><path d="m64.645585 40.3447623c-1.9221706-.4243762-2.9592691-.6365642-3.1112957-.6365642-.2280399 0-.7568529 1.9365317 1.5665917 3.099619.4631703-.6385674.9780716-1.4595857 1.544704-2.4630548z" fill="#fff"></path><path d="m67.5437141 26.4124778c-.8968185-.8156896-3.0099855-.8664322-4.0962343-.0788834-.1110675.0805259-.1358265.2358431-.0553006.3469106.0805259.1110676.2358431.1358265.3469106.0553007.9007786-.6530798 2.7526173-.6086124 3.4703507.0441928.101488.0923071.25859.0848645.3508971-.0166236.0923071-.101488.0848645-.25859-.0166235-.3508971z" fill="url(#y)" transform="matrix(.99862953 .05233596 -.05233596 .99862953 1.466586 -3.391162)"></path><path d="m32.4759665 56.3038701c1.1670197-3.2229433 2.4751957-5.2565709 3.924528-6.1008829 2.1739985-1.266468 11.5152476-1.5979864 17.6195474 0 4.0695332 1.0653242 7.0766409 4.4215843 9.0213232 10.0687802z" fill="#fff"></path></g><path d="m53.9135252 33.614974c-.2458348 4.1514009-1.0238507 6.41603-2.3340475 6.7938872-4.0386709 1.1647417-11.2362037 0-12.4919346 0-2.8001906 0-6.6303865-14.3541688-7.3381444-23.6621018-.7077578-9.307933 2.9891897-15.58016282 7.3381444-16.57023306 2.8993032-.66004683 6.861797.53088431 11.8874815 3.5727934 5.0851047-2.0824161 10.0420735-2.27985024 14.8709065-.5923024 7.2432495 2.53132175 7.3764977 12.72749226 1.2423325 15.58106136-7.5923836-4.6483768-7.9021399.8643677-8.8752082 1.7972134-.9730682.9328456.0707758 5.9653313-1.6373326 7.1712875-1.7081084 1.2059561-1.8532185-.8441693-2.6621976-2.5570225-.8089792-1.7128531-3.6578035-2.3640695-4.6198006-.5155957-.9619972 1.8484738-.2411913 5.8625286 1.2023976 7.4425288.9623925 1.0533335 2.1015269 1.5661615 3.417403 1.5384838z" fill="url(#z)"></path><path d="m14.0641205 64.6822575c.0061299-2.4314255 1.0382062-3.9015889 3.0962289-4.4104901 3.0870341-.7633519 14.5017028-4.4200666 18.4867068-6.1939587 3.9850041-1.7738921 15.9963926-.8349155 19.9656449 0 3.9692523.8349156 10.9716686 2.2194235 12.5656678 3.0257951 1.5939992.8063715 3.9246607 8.0803677 5.4160149 19.7661933.9942362 7.7905504 2.0275316 34.9130139 3.0998863 81.3673899h-31.3147708l-2.7479151-12.604186-2.4534459 12.604186h-23.9941578c2.2114756-23.879009 3.3172134-40.487437 3.3172134-49.825285 0-9.3378478-1.8123578-23.914396-5.4370734-43.7296445z" fill="url(#A)" fill-rule="nonzero"></path><path d="m68.1783689 71.4940686 5.0275084 2.5534882c.1347007.9094581.2645049 1.8505987.3885065 2.8222403.9942362 7.7905504 2.0275316 34.9130139 3.0998863 81.3674959h-13.652905c4.9712394-12.751801 4.6227285-25.941068 1.9764305-42.493553-2.1070489-13.179505-1.0535245-27.929395 3.1605733-44.2496714z" fill="#121527" fill-opacity=".268056" fill-rule="nonzero"></path><path d="m52.5680589 42.1726367c.6714567 1.6614598 1.6863374 2.9802505 3.0446422 3.956372v4.0739785c-1.1581856-1.458928-2.0262694-2.7973197-2.6042515-4.0151752-.577982-1.2178556-.724779-2.5562473-.4403907-4.0151753z" fill="#e09d70" fill-rule="nonzero"></path><path d="m17.3138411 0c1.5165386 0 2.06135.70008114 1.030675 3.32933551-1.030675 2.62925438-3.7044418 3.35413765-2.4431412 7.65945429 1.2613007 4.3053167 3.4738162 8.4746205 2.4431412 10.9981334-.6871166 1.682342-4.4243264 5.158338-11.21162923 10.4279881l-2.78277299-.8695906c-.08591035.0713039-.1732952.141683-.26215456.2111376l-3.21569387-1.2998903c-.87226545-6.0024309-1.09033181-10.0218419-.65419909-12.0582328.65419909-3.0545864 3.17224266-6.0876636 3.86989296-8.93265482.6976503-2.84499118 1.23213064-4.59094006 3.28375731-3.71796562 1.37051794.58316025.49723563 4.59195314-.09578677 7.49858654l-.14304299.2208411c4.28587003-6.64438986 8.66441563-13.4671424 10.18095423-13.4671424z" fill="url(#B)" fill-rule="nonzero" transform="translate(106.134916 38.705269)"></path><path d="m68.1783689 57.1036038c3.3653341 1.2406692 6.2039679 3.7668871 8.5159012 7.5786537 2.3119334 3.8117666 6.8255518 14.0592268 13.5408552 30.7423806l15.9115697-29.4489115 10.538187 4.3907754c-7.637619 26.2941365-12.243764 41.469158-13.818435 45.525064-2.362008 6.08386-8.4589037 7.398078-14.1508607 6.039048-3.1256288-.746285-11.31557-9.900506-18.5813928-16.336197-1.5551758-1.377494-3.7320365-10.6584598-4.8675986-23.0587093-.7570415-8.266833.2135499-16.7442009 2.911774-25.4321039z" fill="url(#C)" fill-rule="nonzero"></path><path d="m107.547423 66.5594241 9.137459 3.8070779c-4.564405 15.7139408-8.046115 27.4566738-10.44513 35.228199-.755528-7.5761018-.499716-13.4738954.767429-17.694912 1.582924-5.2729115 1.763004-12.3863664.540242-21.3403649z" fill="#121527" fill-opacity=".268056" fill-rule="nonzero"></path><path d="m33.7716802 73.8946223c3.1830734 7.5996242 5.3185594 17.8693532 6.4064581 30.8091867 1.0878987 12.939834 1.0878987 23.209563 0 30.809187 2.7561216-4.610125 3.731419-14.879854 2.9258922-30.809187-.8055268-15.9293329-3.9163102-26.1990619-9.3323503-30.8091867z" fill="#121527" fill-opacity=".268056" fill-rule="nonzero"></path></g><ellipse cx="357" cy="449.880264" fill="#f1f4ff" rx="316" ry="9.520837"></ellipse><g transform="translate(459 282.359427)"><path d="m37 101.640573c1.5011624-15.0587911 7.0011624-26.0953595 16.5-33.1097054s14.892012-16.3111108 16.1795234-27.8902948c1.3648471 17.6001855-1.6297683 31.8967998-8.9838461 42.8898429s-15.2526369 17.0297623-23.6956773 18.1101573z" fill="url(#D)"></path><path d="m21.1166543 97.6405728-11.1166543-88 24 88z" fill="#5ba47c"></path><g transform="translate(21 -.359427)"><path d="m9.24145383 108.273838c-3.05813469-4.604284-11.07223549-16.7122399-8.86079253-38.9126291 2.21144297-22.2003893 18.6743173-52.2372455 44.2988301-69.3612089-24.4981003 31.7071726-6.9005577 74.8306511-35.43803757 108.273838z" fill="url(#E)"></path><path d="m27.3669614 20.9405045c-12.1607213 24.6045074-18.24072665 51.7101301-18.24072665 81.3118825 0 .23815.19602667.431208.43783783.431208s.43783782-.193058.43783782-.431208c0-29.4735352 6.0510379-56.4500164 18.1524031-80.93443.105833-.2141294.0153728-.4722113-.2020485-.5764419s-.4794706-.01514-.5853036.1989894z" fill="#5ea67f" fill-rule="nonzero"></path></g><g transform="translate(0 38.640573)"><path d="m27.5392706 65.4486585c.8356877-26.5786749-8.3440691-48.3948944-27.5392706-65.4486585 0 32.1820656 9.17975685 53.9982851 27.5392706 65.4486585z" fill="url(#F)"></path><path d="m5.18650516 12.8019193c10.66577864 19.5022958 17.28631024 36.5579228 19.86444614 51.1617887.0414961.2350547.2684463.3924455.5069075.3515422.2384613-.0409032.3981331-.2646113.356637-.4996659-2.5962037-14.7062113-9.2493007-31.8457323-19.95643972-51.4236552-.11485648-.2100142-.38068362-.288485-.59374152-.1752693s-.29266588.3752453-.1778094.5852595z" fill="#5ea67f" fill-rule="nonzero"></path></g><g transform="translate(5 93.640573)"><path d="m0 0h58.084898v65.664h-58.084898z" fill="url(#z)"></path><path d="m36.411429 0h21.673469v65.664h-21.673469z" fill="url(#G)"></path></g></g><g transform="matrix(-1 0 0 1 653 136.359427)"><path d="m40 112.640573h56v20h-56z" fill="url(#H)"></path><path d="m10.29 121.640573h119.42c4.026156 0 7.29 3.263844 7.29 7.29v172.42c0 4.026156-3.263844 7.29-7.29 7.29h-119.42c-4.02615583 0-7.29-3.263844-7.29-7.29v-172.42c0-4.026156 3.26384417-7.29 7.29-7.29z" fill="url(#I)"></path><g transform="translate(95 141.640573)"><circle cx="7.681818" cy="17.136364" fill="url(#J)" r="7.681818"></circle><path d="m5.909091 14.181818h15.363636v5.909091h-15.363636z" fill="#fff"></path><path d="m15.3636364 11.8181818h9.4545454l-1.1054053 13.2648637c-.043191.5182921-.4764571.9169545-.9965457.9169545h-5.2506434c-.5200886 0-.9533547-.3986624-.9965457-.9169545z" fill="url(#K)"></path><path d="m24.6428182 14.1818182-.604 7.09h-7.888l-.59-7.09z" fill="#f99"></path><path d="m19.9090909 8.27272727h.3636364c.5522847 0 1 .44771525 1 1v2.54545453h-2.3636364v-2.54545453c0-.55228475.4477153-1 1-1z" fill="url(#J)"></path><path d="m14.181818 10.636364h11.818182v2.363636h-11.818182z" fill="#fff"></path><g transform="matrix(-1 0 0 1 40.181818 0)"><path d="m20.0909091 0c1.3054003 0 2.3636364 1.05823605 2.3636364 2.36363636v7.30725604l-1.1822728-.0008924.0004546-2.57909091h-2.3636364l-.0008182 2.57909091-1.181.0008924v-7.30725604c0-1.30540031 1.0582361-2.36363636 2.3636364-2.36363636z" fill="#fff"></path><circle cx="20.090909" cy="2.363636" fill="#f99" r="1.181818"></circle></g></g><g transform="translate(59 141.640573)"><circle cx="7.681818" cy="17.136364" fill="url(#J)" r="7.681818"></circle><path d="m5.909091 14.181818h15.363636v5.909091h-15.363636z" fill="#fff"></path><path d="m15.3636364 11.8181818h9.4545454l-1.1054053 13.2648637c-.043191.5182921-.4764571.9169545-.9965457.9169545h-5.2506434c-.5200886 0-.9533547-.3986624-.9965457-.9169545z" fill="url(#K)"></path><path d="m24.6428182 14.1818182-.604 7.09h-7.888l-.59-7.09z" fill="#a1c0ff"></path><path d="m19.9090909 8.27272727h.3636364c.5522847 0 1 .44771525 1 1v2.54545453h-2.3636364v-2.54545453c0-.55228475.4477153-1 1-1z" fill="url(#J)"></path><path d="m14.181818 10.636364h11.818182v2.363636h-11.818182z" fill="#fff"></path><g transform="matrix(-1 0 0 1 40.181818 0)"><path d="m20.0909091 0c1.3054003 0 2.3636364 1.05823605 2.3636364 2.36363636v7.30725604l-1.1822728-.0008924.0004546-2.57909091h-2.3636364l-.0008182 2.57909091-1.181.0008924v-7.30725604c0-1.30540031 1.0582361-2.36363636 2.3636364-2.36363636z" fill="#fff"></path><circle cx="20.090909" cy="2.363636" fill="#a1c0ff" r="1.181818"></circle></g></g><path d="m4.86 121.640573h38.14v187h-38.14c-2.68410388 0-4.86-2.175896-4.86-4.86v-177.28c0-2.684104 2.17589612-4.86 4.86-4.86z" fill="url(#H)"></path><g fill-rule="nonzero"><path d="m23-.359427h87v115h-87z" fill="url(#M)"></path><path d="m23 52.6405728h87v48.2300002c0 7.604961-6.165039 13.77-13.77 13.77h-59.46c-7.604961 0-13.77-6.165039-13.77-13.77z" fill="url(#N)"></path><path d="m23 39.6405728h44.5 44.5c.552285 0 1 .4477152 1 1 0 .5522847-.447715 1-1 1h-44.5-44.5c-.5522847 0-1-.4477153-1-1 0-.5522848.4477153-1 1-1z" fill="url(#O)"></path><path d="m23 76.6405728h44.5 44.5c.552285 0 1 .4477152 1 1 0 .5522847-.447715 1-1 1h-44.5-44.5c-.5522847 0-1-.4477153-1-1 0-.5522848.4477153-1 1-1z" fill="url(#O)"></path></g><path d="m56 182.640573h71v16h-71z" fill="url(#J)"></path><path d="m47 182.640573h11v16h-11z" fill="#d0d8fc" fill-rule="nonzero" transform="matrix(-1 0 0 1 105 0)"></path></g></g></svg> 